<?xml version="1.0" encoding="UTF-8" standalone="no"?>
<!-- Created with Inkscape (http://www.inkscape.org/) -->
<svg xmlns:i="http://ns.adobe.com/AdobeIllustrator/10.0/" xmlns:svg="http://www.w3.org/2000/svg" xmlns="http://www.w3.org/2000/svg" xmlns:xlink="http://www.w3.org/1999/xlink" version="1.0" width="320.82001" height="469.08801" viewBox="0 0 320.82 469.088" id="svg3963" xml:space="preserve"><defs id="defs4067"><linearGradient id="linearGradient4233"><stop style="stop-color:#00daff;stop-opacity:1" offset="0" id="stop4235"/><stop style="stop-color:#00daff;stop-opacity:0" offset="1" id="stop4237"/></linearGradient><linearGradient id="linearGradient4223"><stop style="stop-color:#ffe700;stop-opacity:1" offset="0" id="stop4225"/><stop style="stop-color:#ffe700;stop-opacity:0" offset="1" id="stop4227"/></linearGradient><linearGradient id="linearGradient4194"><stop style="stop-color:#e9eeb3;stop-opacity:1" offset="0" id="stop4196"/><stop style="stop-color:#e9eeb3;stop-opacity:0" offset="1" id="stop4198"/></linearGradient><linearGradient id="linearGradient4148"><stop style="stop-color:#e0ee6c;stop-opacity:1" offset="0" id="stop4150"/><stop style="stop-color:#e0ee6c;stop-opacity:0" offset="1" id="stop4152"/></linearGradient>
			
			
			
			
			
			
			
			
			
			
			
			
			
				
			
			
			
			
			
				
			
				
			
			
				
			
			
			
				
			
			
			
			
				
			
				
			
				
			
				
			
				
			
				
			
				
			
				
			
				
			
				
			
			
				
			
			
				
			
				
			
			
			
			
				
			
			
			
				
		<linearGradient x1="85.363403" y1="155.05684" x2="241.05209" y2="155.05684" id="linearGradient4146" xlink:href="#linearGradient4148" gradientUnits="userSpaceOnUse" gradientTransform="matrix(0.702327,0,0,0.675598,-3.923961,6.489405)"/><radialGradient cx="14.816963" cy="133.60541" r="40.91251" fx="14.816963" fy="133.60541" id="radialGradient4229" xlink:href="#linearGradient4223" gradientUnits="userSpaceOnUse" gradientTransform="matrix(1,0,0,1.464865,0,-62.10847)"/><linearGradient x1="162.84473" y1="439.45422" x2="162.84473" y2="228.34875" id="linearGradient4239" xlink:href="#linearGradient4233" gradientUnits="userSpaceOnUse" gradientTransform="matrix(0.702327,0,0,0.675598,-3.923961,6.489405)"/></defs>
	
		<path d="M 103.99815,319.69668 L 116.98125,319.89182 L 111.09828,323.01406 L 103.99815,319.69668 z " style="fill:black;fill-rule:evenodd;stroke:black;stroke-width:0.68883306px;stroke-linecap:butt;stroke-linejoin:miter;stroke-opacity:1" id="path4271"/><path d="M 89.392143,305.45142 L 131.18154,305.64656 L 128.13861,312.86675 L 123.06709,318.13555 L 119.82131,320.08696 L 101.36095,319.89182 L 95.477982,315.40359 L 91.826481,309.93965 L 89.392143,305.45142 z " style="fill:#e6e6e6;fill-rule:evenodd;stroke:black;stroke-width:0.68883306px;stroke-linecap:butt;stroke-linejoin:miter;stroke-opacity:1" id="path4265"/><path d="M 115.35837,305.8417 C 115.35837,305.8417 117.58984,318.72097 111.30114,319.69668 C 105.01246,320.67237 119.41558,320.08696 119.41558,320.08696 L 125.50143,316.18415 L 129.76151,310.32993 L 131.79012,305.45142 L 115.35837,305.8417 z " style="fill:#ccc;fill-rule:evenodd;stroke:none;stroke-width:1px;stroke-linecap:butt;stroke-linejoin:miter;stroke-opacity:1" id="path4269"/><path d="M 61.090697,173.91772 L 160.59485,174.29907 L 160.59485,181.92594 L 157.02697,181.92594 L 146.32334,192.60355 L 146.32334,212.43341 L 143.94475,212.05207 L 143.94475,217.39088 L 146.32334,217.39088 L 146.32334,254.38119 L 143.94475,261.62671 L 139.98044,265.44015 L 137.20542,267.34686 L 137.20542,271.16029 L 134.82684,272.68567 L 134.43041,279.93119 L 132.44826,282.21925 L 135.22327,284.50731 L 132.44826,287.55807 L 134.82684,290.60881 L 133.24112,293.27822 L 134.43041,296.32897 L 132.44826,298.99836 L 132.44826,305.4812 L 88.840859,305.4812 L 89.23729,302.8118 L 86.462279,298.99836 L 88.840859,295.94762 L 87.255142,294.80359 L 88.840859,290.99015 L 86.858702,288.32075 L 89.23729,285.27001 L 87.255142,282.98195 L 88.840859,280.31254 L 86.858702,278.40582 L 86.858702,273.44835 L 84.876554,270.77896 L 84.480122,266.96552 L 80.912249,264.67746 L 76.551504,260.48268 L 74.965778,256.2879 L 75.362209,217.39088 L 76.551504,217.77222 L 76.551504,211.67072 L 74.569356,211.67072 L 74.965778,192.9849 L 63.469286,181.54459 L 60.297834,181.92594 L 61.090697,173.91772 z " style="fill:url(#linearGradient4239);fill-opacity:1;fill-rule:evenodd;stroke:none;stroke-width:1px;stroke-linecap:butt;stroke-linejoin:miter;stroke-opacity:1" id="path4231"/><path d="M 55.729473,133.60541 A 40.91251,59.931301 0 1 1 55.729452,133.54392" transform="matrix(2.826331,0,0,1.893046,71.39665,-155.727)" style="opacity:0.875;fill:url(#radialGradient4229);fill-opacity:1;fill-rule:nonzero;stroke:none;stroke-width:3.54685044;stroke-miterlimit:4;stroke-dasharray:none;stroke-dashoffset:0;stroke-opacity:1" id="path4168"/><path d="M 116.91405,174.59434 L 140.21187,174.29552 L 139.5906,164.43462 L 141.45442,159.35476 L 143.62888,157.26306 L 147.97781,155.17135 L 161.02459,148.59741 L 164.75224,144.71282 L 165.37351,139.03532 L 162.26714,131.86376 L 146.42463,126.48507 L 156.05439,123.19811 L 161.02459,120.80759 L 164.13097,117.52062 L 165.06287,110.64787 L 159.78204,104.07393 L 152.94801,100.78697 L 145.80335,98.994077 L 159.78204,95.109482 L 163.5097,91.224878 L 164.75224,85.248575 L 162.88842,78.97345 L 156.67566,74.79004 L 121.88425,63.733876 L 119.70979,57.75757 L 116.91405,55.367048 L 115.67151,54.769417 L 115.05023,50.884819 L 112.25449,48.494297 L 107.28429,47.896667 L 105.73111,51.183634 L 105.10983,53.275341 L 101.69281,55.964679 L 98.897071,61.044538 L 99.518352,66.423213 L 62.24184,79.272271 L 56.961007,86.443835 L 57.892919,94.810661 L 63.173752,97.798817 L 74.356707,102.57986 L 109.76939,89.730804 L 103.55664,86.742657 L 111.94386,84.949761 L 117.84597,87.04147 L 64.105664,105.56801 L 57.892919,110.05025 L 56.961007,119.31352 L 62.863121,125.28981 L 73.735426,128.27797 L 110.39067,116.32536 L 103.86727,113.93484 L 111.32258,111.84313 L 117.22469,114.23365 L 66.90141,131.26613 L 60.067375,134.55309 L 56.029095,142.6211 L 60.688656,150.68911 L 70.629058,154.87254 L 78.084356,156.96424 L 81.812014,162.0441 L 81.501373,174.29552 L 104.79919,174.29552 L 104.48855,162.64173 L 102.62472,153.97609 L 99.828993,147.70096 L 96.722607,143.81637 L 111.94386,139.03532 L 126.54381,142.6211 L 119.70979,150.68911 L 117.22469,160.25121 L 116.91405,174.59434 z " style="fill:url(#linearGradient4146);fill-opacity:1;fill-rule:evenodd;stroke:none;stroke-width:1px;stroke-linecap:butt;stroke-linejoin:miter;stroke-opacity:1" id="path4120"/><path d="M 63.528961,79.021618 C 59.358543,80.699803 56.835781,84.573001 56.806283,88.736718 C 56.806283,94.552262 61.707826,99.267263 67.754168,99.267263 C 69.050657,99.267263 70.293778,99.050393 71.371147,98.676113 M 71.371147,98.676113 L 117.60747,82.859011 M 63.530363,79.020267 L 107.65408,63.926052 M 107.65479,63.926727 C 112.0036,62.624174 111.24157,61.695903 109.87062,61.744545 M 125.00789,72.901372 C 125.00789,71.590711 124.75926,70.336126 124.32874,69.25044 M 117.41783,82.924546 C 122.03002,81.494304 124.97699,77.398828 125.00789,72.901372 M 124.32874,69.25044 L 120.18079,59.228619 M 120.42169,59.842062 C 118.82882,55.566201 114.65699,52.892185 110.11503,52.863133 C 104.06941,52.863133 99.167864,57.578132 99.167864,63.39368 C 99.167864,64.555034 99.362409,65.672473 99.701631,66.642632" style="fill:none;stroke:black;stroke-width:1.19030356;stroke-linecap:round" id="path3968"/><path d="M 118.83233,60.389972 C 117.48526,56.773495 113.95747,54.511593 110.11574,54.487271 C 105.0028,54.487271 100.85696,58.474651 100.85696,63.39368 C 100.85696,64.376 101.0213,65.320486 101.30856,66.141338 M 116.1403,61.317568 C 115.20902,58.817855 112.77054,57.254521 110.11574,57.237631 C 108.6556,57.237631 107.30924,57.708523 106.24732,58.49019 M 103.99215,65.181313 C 104.00479,65.221173 104.01743,65.259683 104.02867,65.292787 M 122.76115,69.850371 L 118.6132,59.828549 M 120.03471,70.895521 L 115.88676,60.8737 M 116.87564,81.303783 C 118.03448,80.944364 119.0683,80.384974 119.94832,79.674242 C 122.00614,78.013623 123.21977,75.533502 123.23803,72.889887 C 123.23803,72.889887 123.03365,70.761753 122.67546,69.856451 M 116.01178,78.727054 C 116.81383,78.478434 117.5295,78.091992 118.13843,77.600832 C 119.57188,76.444208 120.42099,73.018926 120.42099,73.018926 L 120.37323,72.597353 L 120.37674,72.627079 C 120.31283,72.115651 120.21731,71.275207 120.04384,70.819179 M 70.74608,96.986441 L 116.9831,81.169339 M 69.85342,94.572527 L 116.09044,78.755429 M 59.648604,92.298469 C 60.093179,93.232138 60.707713,94.077314 61.454284,94.795472 C 63.066126,96.346648 65.293207,97.305323 67.753462,97.305323 C 68.800636,97.305323 69.807064,97.133723 70.677248,96.830374 M 64.071857,93.758432 C 65.11201,94.465783 66.382521,94.88128 67.753462,94.88128 C 68.493717,94.88128 69.20517,94.765071 69.820411,94.550911 M 76.231256,77.550162 L 112.77405,65.049571 M 74.371493,80.851137 L 110.96626,68.332978 M 67.457781,87.113252 L 108.47721,73.081081" style="fill:none;stroke:black;stroke-width:0.49595982;stroke-linecap:round" id="path3970"/><path d="M 115.22447,53.092161 C 115.22447,50.440439 112.98966,48.290686 110.23373,48.290686 C 107.4778,48.290686 105.24299,50.440439 105.24299,53.092161 C 105.24299,53.386723 105.27038,53.675203 105.31814,53.926525 M 115.12825,54.031918 C 115.19568,53.70628 115.22728,53.381318 115.22447,53.092161 M 63.528961,132.52898 C 59.358543,134.20716 56.835781,138.08037 56.806283,142.24408 C 56.806283,148.05963 61.707826,152.77462 67.754168,152.77462 C 69.050657,152.77462 70.293778,152.55776 71.371147,152.18348 M 63.530363,132.52831 L 150.37455,102.82023" style="fill:none;stroke:black;stroke-width:1.19030356;stroke-linecap:round" id="path3972"/><path d="M 70.74608,150.49381 L 156.65476,121.10529 M 69.85342,148.07989 L 156.12169,118.56842 M 59.648604,145.80583 C 60.093179,146.7395 60.707713,147.58468 61.454284,148.30284 C 63.066126,149.85334 65.293207,150.81269 67.753462,150.81269 C 68.800636,150.81269 69.807064,150.64109 70.677248,150.33774 M 64.071857,147.26647 C 65.11201,147.97315 66.382521,148.38932 67.753462,148.38932 C 68.493717,148.38932 69.20517,148.27312 69.820411,148.05895 M 76.231256,131.05753 L 143.03944,108.20339 M 74.371493,134.35918 L 132.77773,114.37904 M 67.457781,140.62062 L 124.9805,120.94315" style="fill:none;stroke:black;stroke-width:0.49595982;stroke-linecap:round" id="path3974"/><path d="M 164.94222,112.76706 C 164.94222,106.95083 160.04068,102.23583 153.99505,102.23583 C 152.64658,102.23583 151.3557,102.47027 150.2383,102.87496 M 157.66471,122.68889 C 162.12168,121.16406 164.91203,117.14493 164.94222,112.76706 M 71.418905,152.16726 L 157.66049,122.69024" style="fill:none;stroke:black;stroke-width:1.19030356;stroke-linecap:round" id="path3976"/><path d="M 157.00452,120.90464 C 158.10015,120.52968 159.07288,119.97164 159.89881,119.27577 C 161.83091,117.64825 162.95674,115.27286 162.9736,112.75422 C 162.9736,110.38152 161.96857,108.22231 160.34409,106.65965 C 158.7189,105.097 156.47426,104.13022 153.99505,104.13022 C 152.89661,104.13022 151.84312,104.31803 150.9329,104.64773 M 156.14346,118.57653 C 156.92446,118.30899 157.61905,117.91242 158.2069,117.41652 C 159.59259,116.24976 160.40519,112.73734 160.40519,112.73734 C 160.40519,112.73734 159.68741,109.52149 158.52717,108.40607 C 157.36762,107.28999 155.76421,106.6002 153.99505,106.6002 C 153.22108,106.6002 152.47942,106.72721 151.83819,106.95894" style="fill:none;stroke:black;stroke-width:0.49595982;stroke-linecap:round" id="path3978"/><path d="M 63.528961,105.7753 C 59.358543,107.45348 56.835781,111.32669 56.806283,115.4904 C 56.806283,121.30594 61.707826,126.02094 67.754168,126.02094 C 69.050657,126.02094 70.293778,125.80407 71.371147,125.42979 M 63.530363,105.77395 L 150.37455,76.065874" style="fill:none;stroke:black;stroke-width:1.19030356;stroke-linecap:round" id="path3980"/><path d="M 70.74608,123.74012 L 156.65476,94.351604 M 69.85342,121.32621 L 156.12169,91.815414 M 59.648604,119.05215 C 60.093179,119.98583 60.707713,120.831 61.454284,121.54916 C 63.066126,123.09966 65.293207,124.059 67.753462,124.059 C 68.800636,124.059 69.807064,123.8874 70.677248,123.58406 M 64.071857,120.51212 C 65.11201,121.21879 66.382521,121.63496 67.753462,121.63496 C 68.493717,121.63496 69.20517,121.51876 69.820411,121.30459 M 76.231256,104.30385 L 143.03944,81.449713 M 74.371493,107.60549 L 132.77773,87.625357 M 67.457781,113.86693 L 124.9805,94.189462" style="fill:none;stroke:black;stroke-width:0.49595982;stroke-linecap:round" id="path3982"/><path d="M 164.94222,86.013379 C 164.94222,80.197155 160.04068,75.482157 153.99505,75.482157 C 152.64658,75.482157 151.3557,75.716589 150.2383,76.121272 M 157.66471,95.935212 C 162.12168,94.409713 164.91203,90.391256 164.94222,86.013379 M 71.418905,125.4129 L 157.66049,95.935883" style="fill:none;stroke:black;stroke-width:1.19030356;stroke-linecap:round" id="path3984"/><path d="M 157.00452,94.150955 C 158.10015,93.775995 159.07288,93.217957 159.89881,92.522093 C 161.83091,90.894575 162.95674,88.519168 162.9736,86.000541 C 162.9736,83.628515 161.96857,81.468627 160.34409,79.905973 C 158.7189,78.342639 156.47426,77.375858 153.99505,77.375858 C 152.89661,77.375858 151.84312,77.562998 150.9329,77.893366 M 156.14346,91.822849 C 156.92446,91.555313 157.61905,91.158737 158.2069,90.662844 C 159.59259,89.496085 160.40519,85.984329 160.40519,85.984329 C 160.40519,85.984329 159.68741,82.767807 158.52717,81.653065 C 157.36762,80.53698 155.76421,79.847192 153.99505,79.847192 C 153.22108,79.847192 152.47942,79.974209 151.83819,80.20594" style="fill:none;stroke:black;stroke-width:0.49595982;stroke-linecap:round" id="path3986"/><path d="M 156.6358,102.60944 L 146.56302,99.729365 M 110.96134,89.548782 L 103.92894,87.538206 M 68.360974,77.367751 L 68.21208,77.325188 M 158.50398,76.348274 L 122.00333,63.632842 M 126.29877,143.01764 L 110.89111,138.67557 M 75.069609,128.58011 L 64.63724,125.63991 M 118.5535,86.965299 L 111.49932,84.94864 M 165.24563,139.94907 C 165.24563,135.5989 162.50304,131.86419 158.51873,130.23262 M 159.63052,149.14598 C 163.20045,147.23067 165.22175,143.67837 165.24492,139.94907 M 158.52224,130.23465 L 146.03487,126.66344 M 110.43319,116.48353 L 103.41624,114.47699 M 117.3455,114.11894 L 110.33136,112.11308 M 74.746538,101.9379 L 64.647066,99.050393" style="fill:none;stroke:black;stroke-width:1.19030356;stroke-linecap:round" id="path3988"/><path d="M 110.89041,174.41606 L 160.69946,174.41606 M 60.97109,174.41606 L 110.89041,174.41606" style="fill:none;stroke:black;stroke-width:0.49595982;stroke-linecap:round" id="path3990"/><line style="fill:none;stroke:black;stroke-width:1.19030356;stroke-linecap:round" id="line3992" y2="132.47493" x2="144.27904" y1="138.30602" x1="133.0692" i:knockout="Off"/><path d="M 157.72862,148.39675 C 158.82425,148.02179 159.79697,147.46308 160.62291,146.76788 C 162.55502,145.14037 163.68084,142.76497 163.6977,140.24634 C 163.6977,137.87363 162.69267,135.71443 161.06748,134.15176 C 159.443,132.58911 157.19837,131.62165 154.71845,131.62165 C 153.6207,131.62165 152.56721,131.80947 151.657,132.13916 M 156.86686,146.06864 C 157.64785,145.8011 158.34245,145.40453 158.9303,144.90863 C 160.31599,143.7412 161.12859,140.22945 161.12859,140.22945 C 161.12859,140.22945 160.41081,137.0136 159.25056,135.89818 C 158.09102,134.7821 156.48761,134.09231 154.71774,134.09231 C 153.94448,134.09231 153.20282,134.21933 152.56159,134.45105" style="fill:none;stroke:black;stroke-width:0.49595982;stroke-linecap:round" id="path3994"/><path d="M 144.24885,157.16939 C 141.55192,158.57058 140.01311,161.23041 139.99485,164.03009 M 139.99485,174.41606 L 139.99485,164.03009 M 144.24534,157.17142 L 159.79206,149.08451 M 133.43793,137.91214 C 128.28635,140.58819 124.24797,144.47355 121.4822,149.01965 C 118.75787,153.49751 117.27807,158.62868 117.24436,163.89564 M 117.24366,163.89564 L 117.24366,174.41538 M 81.759974,164.03009 C 81.759974,161.0811 80.057539,158.5145 77.505278,157.16939 M 81.759974,174.41606 L 81.759974,164.03009 M 77.509495,157.17142 L 64.298714,152.12875 M 96.15628,143.71215 C 97.74284,145.33967 99.1194,147.1219 100.27332,149.01965 C 102.99835,153.49751 104.47745,158.62868 104.51117,163.89564 M 104.51117,163.89564 L 104.51117,174.41538" style="fill:none;stroke:black;stroke-width:1.19030356;stroke-linecap:round" id="path3996"/><path d="M 143.42292,155.69726 C 141.78298,156.54852 140.49632,157.78351 139.6163,159.22997 C 138.73909,160.67169 138.26642,162.3242 138.25519,164.01995 M 138.05713,174.41606 L 138.05713,164.03009 M 138.05713,174.41606 L 138.05713,164.03009 M 143.42292,155.69726 C 141.78298,156.54852 140.49632,157.78351 139.6163,159.22997 C 138.73909,160.67169 138.26642,162.3242 138.25519,164.01995 M 138.05713,174.41606 L 138.05713,164.03009 M 143.42292,155.69726 C 141.78298,156.54852 140.49632,157.78351 139.6163,159.22997 C 138.73909,160.67169 138.26642,162.3242 138.25519,164.01995 M 143.42292,155.69726 L 159.0806,147.81844 M 142.23247,153.5894 L 157.77918,145.50249 M 142.21912,153.55359 C 140.15568,154.62508 138.53822,156.17896 137.43066,157.9997 C 136.33151,159.80693 135.73734,161.87899 135.7233,164.00509 M 135.70925,174.41606 L 135.70925,164.03009 M 140.5511,150.59987 L 156.09781,142.51296 M 140.54126,150.56407 C 137.88857,151.94229 135.80758,153.94206 134.38255,156.283 C 132.97158,158.60098 132.20885,161.25743 132.1913,163.98348 M 93.798564,145.83894 C 95.217969,147.2962 96.449852,148.89197 97.483679,150.59042 C 99.924271,154.60144 101.24886,159.19754 101.27906,163.91524 M 100.9911,163.89564 L 100.9911,174.41538 M 90.808056,148.53592 C 92.017469,149.77632 93.066036,151.13562 93.946056,152.58208 C 96.026351,156.00061 97.154284,159.91773 97.180271,163.93888 M 97.180977,163.93888 L 97.180977,174.45929 M 84.499757,164.03009 C 84.499757,162.05532 83.928765,160.20823 82.932164,158.62936 C 81.93977,157.05859 80.523884,155.75402 78.822842,154.8575 M 84.499757,174.41606 L 84.499757,164.03009 M 134.79061,140.322 C 130.11451,142.75078 126.44907,146.2774 123.93824,150.40328 C 121.46465,154.4697 120.12039,159.12998 120.0902,163.91321 M 132.1913,174.36944 L 132.1913,163.98348 M 128.59678,141.0226 L 115.07488,137.21222 M 131.84084,138.80056 L 120.14709,135.50499 M 140.65785,76.756335 L 124.87304,71.257642 M 147.41916,75.015994 L 123.37146,66.638578 M 60.97109,174.41606 L 60.97109,182.13206" style="fill:none;stroke:black;stroke-width:0.49595982;stroke-linecap:round" id="path3998"/><path d="M 60.97109,182.13139 L 110.89041,182.13139 M 64.187742,182.13139 L 75.312608,192.83286" style="fill:none;stroke:black;stroke-width:1.19030356;stroke-linecap:round" id="path4000"/><line style="fill:none;stroke:black;stroke-width:0.49595982;stroke-linecap:round" id="line4002" y2="192.83287" x2="110.89042" y1="192.83287" x1="75.312607" i:knockout="Off"/><line style="fill:none;stroke:black;stroke-width:1.19030356;stroke-linecap:round" id="line4004" y2="212.3293" x2="146.48856" y1="212.3293" x1="75.312607" i:knockout="Off"/><path d="M 75.312608,192.83286 L 75.312608,212.32859 M 75.312608,218.25561 L 75.312608,253.45225 M 75.312608,218.25561 L 146.48858,218.25561" style="fill:none;stroke:black;stroke-width:0.49595982;stroke-linecap:round" id="path4006"/><line style="fill:none;stroke:black;stroke-width:1.19030356;stroke-linecap:round" id="line4008" y2="267.06149" x2="136.85052" y1="267.06149" x1="84.951355" i:knockout="Off"/><path d="M 85.086902,271.45694 L 136.71428,271.45694 M 85.087607,267.0615 L 85.087607,271.45694 M 75.295751,253.14282 C 75.71575,261.72089 80.856085,264.84958 82.534641,265.4556 C 84.213913,266.06093 85.05249,265.6576 84.947843,267.17094" style="fill:none;stroke:black;stroke-width:0.49595982;stroke-linecap:round" id="path4010"/><path d="M 85.087607,271.45694 C 87.470596,272.16564 87.470596,273.37428 87.470596,274.34174" style="fill:none;stroke:black;stroke-width:1.19030356;stroke-linecap:round" id="path4012"/><line style="fill:none;stroke:black;stroke-width:0.49595982;stroke-linecap:round" id="line4014" y2="277.70959" x2="87.469894" y1="274.34177" x1="87.469894" i:knockout="Off"/><path d="M 89.076122,305.52532 L 132.72577,305.52532 M 101.71029,320.14999 L 120.19694,320.14999 M 103.74985,320.14999 C 107.5677,323.71985 113.63019,323.70093 117.434,320.14593 M 90.485691,305.64625 C 92.25836,312.20428 94.371665,315.32487 101.7124,320.14391 M 89.076122,302.13179 L 89.076122,305.52532 M 146.48927,192.83286 L 146.48927,212.27184 M 146.48927,218.33399 L 146.48927,253.45157 M 136.71428,267.0615 L 136.71428,271.45694 M 146.50542,253.14282 C 146.08543,261.72089 140.9451,264.84958 139.26654,265.4556 C 137.58727,266.06093 136.74869,265.6576 136.85264,267.17094 M 136.71428,271.45694 C 134.33058,272.16564 134.33058,273.37428 134.33058,274.34174 M 131.31549,305.64625 C 129.54281,312.20428 127.42952,315.32487 120.08879,320.14391 M 132.72577,298.80515 L 132.72577,305.52532" style="fill:none;stroke:black;stroke-width:1.19030356;stroke-linecap:round" id="path4016"/><path d="M 89.009397,279.97555 L 134.33058,276.52798 M 87.438293,282.86508 L 134.33128,279.2986 M 89.075416,285.51073 L 132.89433,282.17732 M 87.477627,288.40161 L 134.4858,284.82634 M 89.031874,291.05401 L 132.86412,287.71993 M 87.499398,293.94084 L 134.46121,290.36896 M 89.076122,296.59053 L 132.91328,293.25646 M 87.342776,299.49291 L 134.48369,295.90683 M 89.076122,302.13179 L 132.72577,298.8119" style="fill:none;stroke:black;stroke-width:0.49595982;stroke-linecap:round" id="path4018"/><path d="M 64.187742,182.13139 L 75.312608,192.83286 M 157.59237,182.13139 L 146.34811,192.94771 M 160.69876,174.41606 L 160.69876,182.13206 M 160.69876,182.13139 L 110.77944,182.13139" style="fill:none;stroke:black;stroke-width:1.19030356;stroke-linecap:round" id="path4020"/><line style="fill:none;stroke:black;stroke-width:0.49595982;stroke-linecap:round" id="line4022" y2="192.83287" x2="110.77944" y1="192.83287" x1="146.35724" i:knockout="Off"/><line style="fill:none;stroke:black;stroke-width:1.19030356;stroke-linecap:round" id="line4024" y2="299.43143" x2="87.303452" y1="302.07166" x1="88.950409" i:knockout="Off"/><line style="fill:none;stroke:black;stroke-width:0.49595982;stroke-linecap:round" id="line4026" y2="299.43143" x2="87.303452" y1="296.56689" x1="89.095093" i:knockout="Off"/><line style="fill:none;stroke:black;stroke-width:1.19030356;stroke-linecap:round" id="line4028" y2="293.90704" x2="87.479034" y1="296.56689" x1="89.095093" i:knockout="Off"/><line style="fill:none;stroke:black;stroke-width:0.49595982;stroke-linecap:round" id="line4030" y2="291.00537" x2="89.058571" y1="293.90704" x1="87.479034" i:knockout="Off"/><line style="fill:none;stroke:black;stroke-width:1.19030356;stroke-linecap:round" id="line4032" y2="288.34488" x2="87.442513" y1="291.00537" x1="89.058571" i:knockout="Off"/><line style="fill:none;stroke:black;stroke-width:0.49595982;stroke-linecap:round" id="line4034" y2="285.47696" x2="89.095093" y1="288.34488" x1="87.442513" i:knockout="Off"/><line style="fill:none;stroke:black;stroke-width:1.19030356;stroke-linecap:round" id="line4036" y2="282.99008" x2="87.370865" y1="285.47696" x1="89.095093" i:knockout="Off"/><line style="fill:none;stroke:black;stroke-width:0.49595982;stroke-linecap:round" id="line4038" y2="279.94989" x2="89.022751" y1="282.99008" x1="87.370865" i:knockout="Off"/><line style="fill:none;stroke:black;stroke-width:1.19030356;stroke-linecap:round" id="line4040" y2="277.70959" x2="87.469894" y1="279.94989" x1="89.022751" i:knockout="Off"/><path d="M 128.62698,305.53613 C 127.05236,311.09427 125.02826,313.84126 118.60688,318.05563 M 124.97418,305.52802 C 123.64678,309.67079 121.75049,311.90432 116.62912,315.26677 M 120.17658,305.52869 C 119.11677,307.91153 117.48174,309.46676 114.09302,311.6915" style="fill:none;stroke:black;stroke-width:0.49595982;stroke-linecap:round" id="path4042"/><line style="fill:none;stroke:black;stroke-width:1.19030356;stroke-linecap:round" id="line4044" y2="298.81528" x2="132.71873" y1="295.95209" x1="134.51038" i:knockout="Off"/><path d="M 134.51037,295.95209 L 132.89433,293.29159 M 132.89433,293.29226 L 134.47456,290.38989 M 134.47456,290.38989 L 132.85781,287.72939" style="fill:none;stroke:black;stroke-width:0.49595982;stroke-linecap:round" id="path4046"/><line style="fill:none;stroke:black;stroke-width:1.19030356;stroke-linecap:round" id="line4048" y2="284.86215" x2="134.51038" y1="287.72937" x1="132.8578" i:knockout="Off"/><line style="fill:none;stroke:black;stroke-width:0.49595982;stroke-linecap:round" id="line4050" y2="282.3746" x2="132.78687" y1="284.86215" x1="134.51038" i:knockout="Off"/><path d="M 132.78686,282.3746 L 134.43874,279.33441 M 132.89433,293.29226 L 134.47456,290.38989 M 134.33058,274.34174 L 134.33058,279.33508" style="fill:none;stroke:black;stroke-width:1.19030356;stroke-linecap:round" id="path4052"/><path d="M 128.62698,298.81461 L 128.62698,305.53546 M 125.00016,299.75639 L 125.00016,305.8084 M 120.17658,301.82034 L 120.17658,305.52869 M 86.823758,267.0615 L 86.823758,271.45694 M 90.405629,267.27093 L 90.405629,271.66569 M 100.49947,267.16621 L 100.49947,271.56165 M 122.42333,266.95746 L 122.42333,271.3529 M 128.17538,267.27093 L 128.17538,271.66569 M 130.99804,267.16621 L 130.99804,271.56165 M 133.05937,267.0615 L 133.05937,271.45694 M 134.79623,267.0615 L 134.79623,271.45694 M 86.823758,271.45694 C 87.973471,272.25954 88.220687,272.82637 88.220687,273.69182 M 87.469899,277.7096 L 107.26148,277.7096 M 91.770949,273.89922 L 91.770949,277.41908 M 88.221393,273.69182 L 88.221393,277.21168 M 90.405629,271.66569 C 91.277921,272.39332 91.770949,273.03445 91.770949,273.89922 M 101.24394,273.37226 L 101.24394,276.89212 M 134.79623,271.45694 C 133.32344,271.83797 132.90556,272.24063 132.90556,273.1966 M 130.81403,273.09594 L 130.81403,275.61119 M 132.90556,273.1966 L 132.90556,275.71185 M 143.94334,253.02662 C 143.83518,255.24663 143.37234,257.04575 142.72199,258.48815 C 142.29216,259.43872 141.78368,260.22782 141.25272,260.87302 C 140.14093,262.22692 138.96735,262.92751 138.36615,263.14438 C 138.02342,263.26869 137.72634,263.33017 137.47982,263.38557 C 137.20872,263.44637 136.97063,263.50379 136.76415,263.5673 C 136.00001,263.80376 135.05117,264.65164 135.05117,264.65164 C 135.05117,264.65164 134.64452,265.21644 134.50827,265.58126 C 134.38606,265.90555 134.29547,266.30145 134.28212,266.80072 C 134.27791,266.96151 134.28142,267.13919 134.29547,267.33444 M 129.29209,264.65704 L 91.580622,264.65704 M 125.05143,261.59793 L 87.339971,261.59793 M 143.94334,192.40723 L 143.94334,212.32859 M 143.94334,218.25561 L 143.94334,253.02662 M 137.46436,192.85718 L 137.46436,212.32859 M 137.46436,218.25561 L 137.46436,253.47657 M 125.68704,192.85718 L 125.68704,212.32859 M 125.68704,218.25561 L 125.68704,253.47657 M 154.12849,181.97262 L 143.94334,192.59302 M 146.57355,182.25772 L 137.46436,193.69425 M 130.12997,182.11517 L 125.54166,192.83286 M 93.391215,181.83007 L 97.648725,192.83286 M 76.296569,182.13139 L 84.536278,192.83286 M 69.257851,182.13139 L 79.174714,192.83286 M 62.448081,182.07532 L 62.448081,174.35323 M 65.104282,182.07532 L 65.104282,174.35323 M 69.257851,182.13139 L 69.257851,174.4093 M 76.296569,182.13139 L 76.296569,174.4093 M 93.391215,181.83007 L 93.391215,174.10799 M 130.12997,182.11517 L 130.12997,174.39309 M 153.7085,182.49148 L 153.7085,174.7694 M 153.7085,182.49148 L 153.7085,174.7694 M 157.59237,182.13139 L 157.59237,174.4093 M 79.174714,192.83286 L 79.174714,212.32859 M 79.174714,218.25561 L 79.174714,246.08012 M 84.536983,192.83286 L 84.536983,212.32859 M 84.536983,218.25561 L 84.536983,234.11122 M 97.648725,192.83286 L 97.648725,212.32859 M 97.648725,218.25561 L 97.648725,227.22012" style="fill:none;stroke:black;stroke-width:0.49595982;stroke-linecap:round" id="path4054"/><path d="M 143.94334,218.25561 L 143.94334,212.32927 M 138.75314,218.18941 L 138.75314,212.26306 M 134.31443,218.22251 L 134.31443,212.29617" style="fill:none;stroke:black;stroke-width:1.19030356;stroke-linecap:round" id="path4056"/><line style="fill:none;stroke:black;stroke-width:0.49595982;stroke-linecap:round" id="line4058" y2="212.25563" x2="130.5921" y1="218.18268" x1="130.5921" i:knockout="Off"/><path d="M 128.47599,218.18941 L 128.47599,212.26306 M 116.35803,218.10361 L 116.35803,212.17726 M 104.62635,218.24886 L 104.62635,212.32252 M 93.179813,218.26642 L 93.179813,212.34008" style="fill:none;stroke:black;stroke-width:1.19030356;stroke-linecap:round" id="path4060"/><path d="M 80.706485,218.25156 L 80.706485,212.32522 M 78.430242,218.2394 L 78.430242,212.31305 M 76.408238,218.28669 L 76.408238,212.36034 M 137.45805,253.49211 C 137.29159,255.42026 136.95729,260.23863 133.17175,260.8818" style="fill:none;stroke:black;stroke-width:0.49595982;stroke-linecap:round" id="path4062"/>
	<path d="M 156.63054,181.92594 L 104.30166,181.92594 C 104.30166,181.92594 113.41958,184.214 115.79816,187.64609 C 118.17674,191.07818 118.17674,192.9849 118.17674,192.9849 L 146.32334,192.9849 L 156.63054,181.92594 z " style="fill:#00a2ff;fill-opacity:0.25555558;fill-rule:evenodd;stroke:none;stroke-width:1px;stroke-linecap:butt;stroke-linejoin:miter;stroke-opacity:1" id="path4259"/><path d="M 118.17674,192.9849 L 117.78031,212.43341 C 117.78031,212.43341 121.74463,212.43341 121.74463,217.77222 C 121.74463,223.11103 122.14105,255.52521 122.14105,255.52521 C 122.14105,255.52521 122.93392,265.44015 115.79816,266.58417 C 108.6624,267.7282 136.41256,266.96552 136.41256,266.96552 L 140.77331,263.91478 L 145.92691,258.19462 L 146.32334,246.37298 L 146.32334,217.39088 L 144.34118,217.77222 L 143.94475,212.05207 L 146.71977,212.05207 L 146.32334,192.60355 L 118.17674,192.9849 z " style="fill:#00a2ff;fill-opacity:0.25555558;fill-rule:evenodd;stroke:none;stroke-width:1px;stroke-linecap:butt;stroke-linejoin:miter;stroke-opacity:1" id="path4261"/><path d="M 116.77839,267.00872 L 116.77839,271.49695 C 116.77839,271.49695 114.34406,271.88723 114.34406,274.03378 C 114.34406,276.18032 114.1412,277.93659 114.1412,277.93659 L 116.16981,280.8637 L 113.93834,283.59567 L 116.16981,286.32764 L 114.1412,289.25475 L 116.16981,291.59644 L 113.53262,294.52354 L 116.37268,297.45065 L 113.32976,300.18261 L 113.1269,305.45142 L 132.80443,305.8417 L 133.00729,299.01178 L 134.42731,296.27981 L 132.60157,293.15756 L 134.42731,290.62073 L 132.80443,287.1082 L 134.63017,284.76651 L 133.00729,282.22969 L 134.22446,279.49772 L 134.42731,273.05807 L 137.26736,271.30181 L 136.86165,266.61844 L 116.77839,267.00872 z " style="fill:#00a2ff;fill-opacity:0.25555558;fill-rule:evenodd;stroke:none;stroke-width:1px;stroke-linecap:butt;stroke-linejoin:miter;stroke-opacity:1" id="path4263"/><path d="M 106.63534,181.92743 L 106.63533,174.51208 L 160.19067,174.1218 L 160.39354,181.92743 L 106.63534,181.92743 z " style="opacity:0.7;fill:#0084ff;fill-opacity:0.25555558;fill-rule:evenodd;stroke:none;stroke-width:1px;stroke-linecap:butt;stroke-linejoin:miter;stroke-opacity:1" id="path4275"/></svg>