<?xml version="1.0" encoding="UTF-8" standalone="no"?>
<!-- Created with Inkscape (http://www.inkscape.org/) -->

<svg
   xmlns:i="http://ns.adobe.com/AdobeIllustrator/10.0/"
   xmlns:dc="http://purl.org/dc/elements/1.1/"
   xmlns:cc="http://creativecommons.org/ns#"
   xmlns:rdf="http://www.w3.org/1999/02/22-rdf-syntax-ns#"
   xmlns:svg="http://www.w3.org/2000/svg"
   xmlns="http://www.w3.org/2000/svg"
   xmlns:xlink="http://www.w3.org/1999/xlink"
   xmlns:sodipodi="http://sodipodi.sourceforge.net/DTD/sodipodi-0.dtd"
   xmlns:inkscape="http://www.inkscape.org/namespaces/inkscape"
   version="1.0"
   width="400"
   height="400"
   viewBox="0 0 399.99999 399.99999"
   id="svg3963"
   xml:space="preserve"
   inkscape:version="0.48.3.1 r9886"
   sodipodi:docname="11954319411133841429JicJac_Light_Bulb.svg"><metadata
   id="metadata79"><rdf:RDF><cc:Work
       rdf:about=""><dc:format>image/svg+xml</dc:format><dc:type
         rdf:resource="http://purl.org/dc/dcmitype/StillImage" /><dc:title></dc:title></cc:Work></rdf:RDF></metadata><sodipodi:namedview
   pagecolor="#ffffff"
   bordercolor="#666666"
   borderopacity="1"
   objecttolerance="10"
   gridtolerance="10"
   guidetolerance="10"
   inkscape:pageopacity="0"
   inkscape:pageshadow="2"
   inkscape:window-width="672"
   inkscape:window-height="480"
   id="namedview77"
   showgrid="false"
   inkscape:zoom="0.50310388"
   inkscape:cx="438.68255"
   inkscape:cy="155.66329"
   inkscape:window-x="234"
   inkscape:window-y="99"
   inkscape:window-maximized="0"
   inkscape:current-layer="svg3963" /><defs
   id="defs4067"><linearGradient
   id="linearGradient4233"><stop
     style="stop-color:#00daff;stop-opacity:1"
     offset="0"
     id="stop4235" /><stop
     style="stop-color:#00daff;stop-opacity:0"
     offset="1"
     id="stop4237" /></linearGradient><linearGradient
   id="linearGradient4223"><stop
     style="stop-color:#ffe700;stop-opacity:1"
     offset="0"
     id="stop4225" /><stop
     style="stop-color:#ffe700;stop-opacity:0"
     offset="1"
     id="stop4227" /></linearGradient><linearGradient
   id="linearGradient4194"><stop
     style="stop-color:#e9eeb3;stop-opacity:1"
     offset="0"
     id="stop4196" /><stop
     style="stop-color:#e9eeb3;stop-opacity:0"
     offset="1"
     id="stop4198" /></linearGradient><linearGradient
   id="linearGradient4148"><stop
     style="stop-color:#e0ee6c;stop-opacity:1"
     offset="0"
     id="stop4150" /><stop
     style="stop-color:#e0ee6c;stop-opacity:0"
     offset="1"
     id="stop4152" /></linearGradient>
			
			
			
			
			
			
			
			
			
			
			
			
			
				
			
			
			
			
			
				
			
				
			
			
				
			
			
			
				
			
			
			
			
				
			
				
			
				
			
				
			
				
			
				
			
				
			
				
			
				
			
				
			
			
				
			
			
				
			
				
			
			
			
			
				
			
			
			
				
		<linearGradient
   x1="85.363403"
   y1="155.05684"
   x2="241.05209"
   y2="155.05684"
   id="linearGradient4146"
   xlink:href="#linearGradient4148"
   gradientUnits="userSpaceOnUse"
   gradientTransform="matrix(0.702327,0,0,0.675598,95.45909,62.624042)" /><radialGradient
   cx="14.816963"
   cy="133.60541"
   r="40.91251"
   fx="14.816963"
   fy="133.60541"
   id="radialGradient4229"
   xlink:href="#linearGradient4223"
   gradientUnits="userSpaceOnUse"
   gradientTransform="matrix(2.826331,0,0,2.7730568,170.7797,-217.16656)" /><linearGradient
   x1="162.84473"
   y1="439.45422"
   x2="162.84473"
   y2="228.34875"
   id="linearGradient4239"
   xlink:href="#linearGradient4233"
   gradientUnits="userSpaceOnUse"
   gradientTransform="matrix(0.702327,0,0,0.675598,95.45909,62.624042)" /><linearGradient
   inkscape:collect="always"
   xlink:href="#linearGradient4233"
   id="linearGradient3116"
   gradientUnits="userSpaceOnUse"
   gradientTransform="matrix(0.702327,0,0,0.675598,95.45909,62.624042)"
   x1="162.84473"
   y1="439.45422"
   x2="162.84473"
   y2="228.34875" /><radialGradient
   inkscape:collect="always"
   xlink:href="#linearGradient4223"
   id="radialGradient3118"
   gradientUnits="userSpaceOnUse"
   gradientTransform="matrix(2.826331,0,0,2.7730568,170.7797,-217.16656)"
   cx="14.816963"
   cy="133.60541"
   fx="14.816963"
   fy="133.60541"
   r="40.91251" /><linearGradient
   inkscape:collect="always"
   xlink:href="#linearGradient4148"
   id="linearGradient3120"
   gradientUnits="userSpaceOnUse"
   gradientTransform="matrix(0.702327,0,0,0.675598,95.45909,62.624042)"
   x1="85.363403"
   y1="155.05684"
   x2="241.05209"
   y2="155.05684" /></defs>
	
		
	<g
   id="g3056"
   transform="translate(-12.657345,-9.7124237)"><path
     inkscape:connector-curvature="0"
     id="path4271"
     style="fill:#000000;fill-rule:evenodd;stroke:#000000;stroke-width:0.68883306px;stroke-linecap:butt;stroke-linejoin:miter;stroke-opacity:1"
     d="m 203.3812,375.83131 12.9831,0.19514 -5.88297,3.12224 -7.10013,-3.31738 z" /><path
     inkscape:connector-curvature="0"
     id="path4265"
     style="fill:#e6e6e6;fill-rule:evenodd;stroke:#000000;stroke-width:0.68883306px;stroke-linecap:butt;stroke-linejoin:miter;stroke-opacity:1"
     d="m 188.77519,361.58605 41.7894,0.19514 -3.04293,7.22019 -5.07152,5.2688 -3.24578,1.95141 -18.46036,-0.19514 -5.88297,-4.48823 -3.6515,-5.46394 -2.43434,-4.48823 z" /><path
     inkscape:connector-curvature="0"
     id="path4269"
     style="fill:#cccccc;fill-rule:evenodd;stroke:none"
     d="m 214.74142,361.97633 c 0,0 2.23147,12.87927 -4.05723,13.85498 -6.28868,0.97569 8.11444,0.39028 8.11444,0.39028 l 6.08585,-3.90281 4.26008,-5.85422 2.02861,-4.87851 -16.43175,0.39028 z" /><path
     inkscape:connector-curvature="0"
     id="path4231"
     style="fill:url(#linearGradient3116);fill-opacity:1;fill-rule:evenodd;stroke:none"
     d="m 160.47374,230.05235 99.50416,0.38135 0,7.62687 -3.56788,0 -10.70363,10.67761 0,19.82986 -2.37859,-0.38134 0,5.33881 2.37859,0 0,36.99031 -2.37859,7.24552 -3.96431,3.81344 -2.77502,1.90671 0,3.81343 -2.37858,1.52538 -0.39643,7.24552 -1.98215,2.28806 2.77501,2.28806 -2.77501,3.05076 2.37858,3.05074 -1.58572,2.66941 1.18929,3.05075 -1.98215,2.66939 0,6.48284 -43.6074,0 0.39643,-2.6694 -2.77501,-3.81344 2.37858,-3.05074 -1.58572,-1.14403 1.58572,-3.81344 -1.98216,-2.6694 2.37859,-3.05074 -1.98215,-2.28806 1.58572,-2.66941 -1.98216,-1.90672 0,-4.95747 -1.98215,-2.66939 -0.39643,-3.81344 -3.56787,-2.28806 -4.36075,-4.19478 -1.58573,-4.19478 0.39644,-38.89702 1.18929,0.38134 0,-6.1015 -1.98215,0 0.39642,-18.68582 -11.49649,-11.44031 -3.17145,0.38135 0.79286,-8.00822 z" /><path
     inkscape:connector-curvature="0"
     id="path4168"
     style="opacity:0.875;fill:url(#radialGradient3118);fill-opacity:1;fill-rule:nonzero;stroke:none"
     d="m 328.28964,153.32882 a 115.6323,113.45271 0 1 1 -6e-5,-0.11643" /><path
     inkscape:connector-curvature="0"
     id="path4120"
     style="fill:url(#linearGradient3120);fill-opacity:1;fill-rule:evenodd;stroke:none"
     d="m 216.2971,230.72897 23.29782,-0.29882 -0.62127,-9.8609 1.86382,-5.07986 2.17446,-2.0917 4.34893,-2.09171 13.04678,-6.57394 3.72765,-3.88459 0.62127,-5.6775 -3.10637,-7.17156 -15.84251,-5.37869 9.62976,-3.28696 4.9702,-2.39052 3.10638,-3.28697 0.9319,-6.87275 -5.28083,-6.57394 -6.83403,-3.28696 -7.14466,-1.79289 13.97869,-3.8846 3.72766,-3.8846 1.24254,-5.97631 -1.86382,-6.27512 -6.21276,-4.18341 -34.79141,-11.05617 -2.17446,-5.9763 -2.79574,-2.39052 -1.24254,-0.59763 -0.62128,-3.8846 -2.79574,-2.39052 -4.9702,-0.59763 -1.55318,3.28696 -0.62128,2.09171 -3.41702,2.68934 -2.79574,5.07986 0.62128,5.37867 -37.27651,12.84906 -5.28084,7.17156 0.93192,8.36683 5.28083,2.98816 11.18295,4.78104 35.41269,-12.84906 -6.21275,-2.98814 8.38722,-1.7929 5.90211,2.09171 -53.74031,18.52654 -6.21274,4.48224 -0.93192,9.26327 5.90212,5.97629 10.8723,2.98816 36.65525,-11.95261 -6.5234,-2.39052 7.45531,-2.09171 5.90211,2.39052 -50.32328,17.03248 -6.83404,3.28696 -4.03828,8.06801 4.65956,8.06801 9.9404,4.18343 7.4553,2.0917 3.72766,5.07986 -0.31064,12.25142 23.29782,0 -0.31064,-11.65379 -1.86383,-8.66564 -2.79573,-6.27513 -3.10639,-3.88459 15.22126,-4.78105 14.59995,3.58578 -6.83402,8.06801 -2.4851,9.5621 -0.31064,14.34313 z" /><path
     inkscape:connector-curvature="0"
     id="path3968"
     style="fill:none;stroke:#000000;stroke-width:1.19030356;stroke-linecap:round"
     d="m 162.91201,135.15625 c -4.17042,1.67818 -6.69318,5.55138 -6.72268,9.7151 0,5.81554 4.90154,10.53054 10.94788,10.53054 1.29649,0 2.53961,-0.21687 3.61698,-0.59115 m 0,0 46.23633,-15.8171 m -54.07711,-3.83875 44.12372,-15.09421 m 7.1e-4,6.8e-4 c 4.34881,-1.30256 3.58678,-2.23083 2.21583,-2.18219 m 15.13727,11.15683 c 0,-1.31066 -0.24863,-2.56525 -0.67915,-3.65093 m -6.91091,13.6741 c 4.61219,-1.43024 7.55916,-5.52571 7.59006,-10.02317 m -0.67915,-3.65093 -4.14795,-10.02182 m 0.2409,0.61344 c -1.59287,-4.27586 -5.7647,-6.94988 -10.30666,-6.97893 -6.04562,0 -10.94717,4.715 -10.94717,10.53055 0,1.16135 0.19455,2.27879 0.53377,3.24895" /><path
     inkscape:connector-curvature="0"
     id="path3970"
     style="fill:none;stroke:#000000;stroke-width:0.49595982;stroke-linecap:round"
     d="m 218.21538,116.5246 c -1.34707,-3.61648 -4.87486,-5.87838 -8.71659,-5.9027 -5.11294,0 -9.25878,3.98738 -9.25878,8.90641 0,0.98232 0.16434,1.9268 0.4516,2.74766 m 14.83174,-4.82377 c -0.93128,-2.49972 -3.36976,-4.06305 -6.02456,-4.07994 -1.46014,0 -2.8065,0.47089 -3.86842,1.25256 m -2.25517,6.69112 c 0.0126,0.0399 0.0253,0.0784 0.0365,0.11147 m 18.73248,4.55759 -4.14795,-10.02182 m 1.42151,11.06697 -4.14795,-10.02182 m 0.98888,20.43008 c 1.15884,-0.35942 2.19266,-0.91881 3.07268,-1.62954 2.05782,-1.66062 3.27145,-4.14074 3.28971,-6.78436 0,0 -0.20438,-2.12813 -0.56257,-3.03343 m -6.66368,8.8706 c 0.80205,-0.24862 1.51772,-0.63506 2.12665,-1.12622 1.43345,-1.15662 2.28256,-4.58191 2.28256,-4.58191 l -0.0478,-0.42157 0.004,0.0297 c -0.0639,-0.51143 -0.15943,-1.35187 -0.3329,-1.8079 m -49.29819,26.16726 46.23702,-15.8171 m -47.12968,13.40318 46.23702,-15.81709 m -56.44184,13.54304 c 0.44458,0.93367 1.05911,1.77884 1.80568,2.497 1.61184,1.55118 3.83892,2.50985 6.29918,2.50985 1.04717,0 2.0536,-0.1716 2.92378,-0.47495 m -6.60539,-3.07194 c 1.04016,0.70735 2.31067,1.12285 3.68161,1.12285 0.74025,0 1.45171,-0.11621 2.06695,-0.33037 m 6.41084,-17.00075 36.5428,-12.50059 m -38.40256,15.80157 36.59477,-12.51816 m -43.50848,18.78027 41.01943,-14.03217" /><path
     inkscape:connector-curvature="0"
     id="path3972"
     style="fill:none;stroke:#000000;stroke-width:1.19030356;stroke-linecap:round"
     d="m 214.60752,109.22679 c 0,-2.65172 -2.23481,-4.80147 -4.99074,-4.80147 -2.75593,0 -4.99074,2.14975 -4.99074,4.80147 0,0.29456 0.0274,0.58304 0.0751,0.83436 m 9.81011,0.1054 c 0.0674,-0.32564 0.099,-0.6506 0.0962,-0.93976 m -51.69544,79.43682 c -4.17042,1.67818 -6.69318,5.55139 -6.72268,9.7151 0,5.81555 4.90154,10.53054 10.94788,10.53054 1.29649,0 2.53961,-0.21686 3.61698,-0.59114 m -7.84078,-19.65517 86.84419,-29.70808" /><path
     inkscape:connector-curvature="0"
     id="path3974"
     style="fill:none;stroke:#000000;stroke-width:0.49595982;stroke-linecap:round"
     d="m 170.12913,206.62844 85.90868,-29.38852 m -86.80134,26.9746 86.26827,-29.51147 m -96.47309,27.23741 c 0.44458,0.93367 1.05911,1.77885 1.80568,2.49701 1.61184,1.5505 3.83892,2.50985 6.29918,2.50985 1.04717,0 2.0536,-0.1716 2.92378,-0.47495 m -6.60539,-3.07127 c 1.04016,0.70668 2.31067,1.12285 3.68161,1.12285 0.74025,0 1.45171,-0.1162 2.06695,-0.33037 m 6.41084,-17.00142 66.80819,-22.85414 m -68.66795,26.15579 58.40624,-19.98014 m -65.31995,26.24158 57.52272,-19.67747" /><path
     inkscape:connector-curvature="0"
     id="path3976"
     style="fill:none;stroke:#000000;stroke-width:1.19030356;stroke-linecap:round"
     d="m 264.32527,168.90169 c 0,-5.81623 -4.90154,-10.53123 -10.94717,-10.53123 -1.34847,0 -2.63935,0.23444 -3.75675,0.63913 m 7.42641,19.81393 c 4.45697,-1.52483 7.24732,-5.54396 7.27751,-9.92183 m -93.52332,39.4002 86.24159,-29.47702" /><path
     inkscape:connector-curvature="0"
     id="path3978"
     style="fill:none;stroke:#000000;stroke-width:0.49595982;stroke-linecap:round"
     d="m 256.38757,177.03927 c 1.09563,-0.37496 2.06836,-0.933 2.89429,-1.62887 1.9321,-1.62752 3.05793,-4.00291 3.07479,-6.52155 0,-2.3727 -1.00503,-4.53191 -2.62951,-6.09457 -1.62519,-1.56265 -3.86983,-2.52943 -6.34904,-2.52943 -1.09844,0 -2.15193,0.18781 -3.06215,0.51751 m 5.21056,13.9288 c 0.781,-0.26754 1.47559,-0.66411 2.06344,-1.16001 1.38569,-1.16676 2.19829,-4.67918 2.19829,-4.67918 0,0 -0.71778,-3.21585 -1.87802,-4.33127 -1.15955,-1.11608 -2.76296,-1.80587 -4.53212,-1.80587 -0.77397,0 -1.51563,0.12701 -2.15686,0.35874" /><path
     inkscape:connector-curvature="0"
     id="path3980"
     style="fill:none;stroke:#000000;stroke-width:1.19030356;stroke-linecap:round"
     d="m 162.91201,161.90993 c -4.17042,1.67818 -6.69318,5.55139 -6.72268,9.7151 0,5.81554 4.90154,10.53054 10.94788,10.53054 1.29649,0 2.53961,-0.21687 3.61698,-0.59115 m -7.84078,-19.65584 86.84419,-29.70808" /><path
     inkscape:connector-curvature="0"
     id="path3982"
     style="fill:none;stroke:#000000;stroke-width:0.49595982;stroke-linecap:round"
     d="m 170.12913,179.87475 85.90868,-29.38852 m -86.80134,26.97461 86.26827,-29.5108 m -96.47309,27.23674 c 0.44458,0.93368 1.05911,1.77885 1.80568,2.49701 1.61184,1.5505 3.83892,2.50984 6.29918,2.50984 1.04717,0 2.0536,-0.1716 2.92378,-0.47494 m -6.60539,-3.07194 c 1.04016,0.70667 2.31067,1.12284 3.68161,1.12284 0.74025,0 1.45171,-0.1162 2.06695,-0.33037 m 6.41084,-17.00074 66.80819,-22.85414 m -68.66795,26.15578 58.40624,-19.98014 m -65.31995,26.24158 57.52272,-19.67747" /><path
     inkscape:connector-curvature="0"
     id="path3984"
     style="fill:none;stroke:#000000;stroke-width:1.19030356;stroke-linecap:round"
     d="m 264.32527,142.14801 c 0,-5.81623 -4.90154,-10.53123 -10.94717,-10.53123 -1.34847,0 -2.63935,0.23444 -3.75675,0.63912 m 7.42641,19.81394 c 4.45697,-1.5255 7.24732,-5.54396 7.27751,-9.92183 m -93.52332,39.39952 86.24159,-29.47702" /><path
     inkscape:connector-curvature="0"
     id="path3986"
     style="fill:none;stroke:#000000;stroke-width:0.49595982;stroke-linecap:round"
     d="m 256.38757,150.28558 c 1.09563,-0.37496 2.06836,-0.933 2.89429,-1.62886 1.9321,-1.62752 3.05793,-4.00292 3.07479,-6.52155 0,-2.37203 -1.00503,-4.53192 -2.62951,-6.09457 -1.62519,-1.56333 -3.86983,-2.53011 -6.34904,-2.53011 -1.09844,0 -2.15193,0.18714 -3.06215,0.5175 m 5.21056,13.92949 c 0.781,-0.26754 1.47559,-0.66412 2.06344,-1.16001 1.38569,-1.16676 2.19829,-4.67851 2.19829,-4.67851 0,0 -0.71778,-3.21652 -1.87802,-4.33127 -1.15955,-1.11608 -2.76296,-1.80587 -4.53212,-1.80587 -0.77397,0 -1.51563,0.12702 -2.15686,0.35875" /><path
     inkscape:connector-curvature="0"
     id="path3988"
     style="fill:none;stroke:#000000;stroke-width:1.19030356;stroke-linecap:round"
     d="m 256.01885,158.74407 -10.07278,-2.88008 m -35.60168,-10.18058 -7.0324,-2.01058 m -35.56797,-10.17045 -0.14889,-0.0426 m 90.2919,-0.97692 -36.50065,-12.71543 m 4.29544,79.3848 -15.40766,-4.34207 m -35.8215,-10.09546 -10.43237,-2.9402 m 53.91626,-38.67461 -7.05418,-2.01666 m 53.74631,55.00043 c 0,-4.35017 -2.74259,-8.08488 -6.7269,-9.71645 m 1.11179,18.91336 c 3.56993,-1.91531 5.59123,-5.46761 5.6144,-9.19691 m -6.72268,-9.71442 -12.48737,-3.57121 m -35.60168,-10.17991 -7.01695,-2.00654 m 13.92926,-0.35805 -7.01414,-2.00586 m -35.58483,-10.17518 -10.09947,-2.88751" /><path
     inkscape:connector-curvature="0"
     id="path3990"
     style="fill:none;stroke:#000000;stroke-width:0.49595982;stroke-linecap:round"
     d="m 210.27346,230.55069 49.80905,0 m -99.72837,0 49.91932,0" /><line
     i:knockout="Off"
     x1="232.45224"
     y1="194.44064"
     x2="243.66208"
     y2="188.60956"
     id="line3992"
     style="fill:none;stroke:#000000;stroke-width:1.19030356;stroke-linecap:round" /><path
     inkscape:connector-curvature="0"
     id="path3994"
     style="fill:none;stroke:#000000;stroke-width:0.49595982;stroke-linecap:round"
     d="m 257.11167,204.53138 c 1.09563,-0.37496 2.06835,-0.93367 2.89429,-1.62887 1.93211,-1.62751 3.05793,-4.00291 3.07479,-6.52154 0,-2.37271 -1.00503,-4.53191 -2.63022,-6.09458 -1.62448,-1.56265 -3.86911,-2.53011 -6.34903,-2.53011 -1.09775,0 -2.15124,0.18782 -3.06145,0.51751 m 5.20986,13.92948 c 0.78099,-0.26754 1.47559,-0.66411 2.06344,-1.16001 1.38569,-1.16743 2.19829,-4.67918 2.19829,-4.67918 0,0 -0.71778,-3.21585 -1.87803,-4.33127 -1.15954,-1.11608 -2.76295,-1.80587 -4.53282,-1.80587 -0.77326,0 -1.51492,0.12702 -2.15615,0.35874" /><path
     inkscape:connector-curvature="0"
     id="path3996"
     style="fill:none;stroke:#000000;stroke-width:1.19030356;stroke-linecap:round"
     d="m 243.6319,213.30402 c -2.69693,1.40119 -4.23574,4.06102 -4.254,6.8607 m 0,10.38597 0,-10.38597 m 4.25049,-6.85867 15.54672,-8.08691 m -26.35413,-11.17237 c -5.15158,2.67605 -9.18996,6.56141 -11.95573,11.10751 -2.72433,4.47786 -4.20413,9.60903 -4.23784,14.87599 m -7e-4,0 0,10.51974 m -35.48369,-10.38529 c 0,-2.94899 -1.70243,-5.51559 -4.2547,-6.8607 m 4.2547,17.24667 0,-10.38597 m -4.25048,-6.85867 -13.21078,-5.04267 m 31.85757,-8.4166 c 1.58656,1.62752 2.96312,3.40975 4.11704,5.3075 2.72503,4.47786 4.20413,9.60903 4.23785,14.87599 m 0,0 0,10.51974" /><path
     inkscape:connector-curvature="0"
     id="path3998"
     style="fill:none;stroke:#000000;stroke-width:0.49595982;stroke-linecap:round"
     d="m 242.80597,211.83189 c -1.63994,0.85126 -2.9266,2.08625 -3.80662,3.53271 -0.87721,1.44172 -1.34988,3.09423 -1.36111,4.78998 m -0.19806,10.39611 0,-10.38597 m 0,10.38597 0,-10.38597 m 5.36579,-8.33283 c -1.63994,0.85126 -2.9266,2.08625 -3.80662,3.53271 -0.87721,1.44172 -1.34988,3.09423 -1.36111,4.78998 m -0.19806,10.39611 0,-10.38597 m 5.36579,-8.33283 c -1.63994,0.85126 -2.9266,2.08625 -3.80662,3.53271 -0.87721,1.44172 -1.34988,3.09423 -1.36111,4.78998 m 5.16773,-8.32269 15.65768,-7.87882 m -16.84813,5.77096 15.54671,-8.08691 m -15.56006,8.0511 c -2.06344,1.07149 -3.6809,2.62537 -4.78846,4.44611 -1.09915,1.80723 -1.69332,3.87929 -1.70736,6.00539 m -0.014,10.41097 0,-10.38597 m 4.84185,-13.43022 15.54671,-8.08691 m -15.55655,8.05111 c -2.65269,1.37822 -4.73368,3.37799 -6.15871,5.71893 -1.41097,2.31798 -2.1737,4.97443 -2.19125,7.70048 m -38.39279,-18.14454 c 1.41941,1.45726 2.65129,3.05303 3.68512,4.75148 2.44059,4.01102 3.76518,8.60712 3.79538,13.32482 m -0.28796,-0.0196 0,10.51974 M 190.1911,204.67055 c 1.20942,1.2404 2.25798,2.5997 3.138,4.04616 2.0803,3.41853 3.20823,7.33565 3.23422,11.3568 m 7e-4,0 0,10.52041 m -12.68122,-10.4292 c 0,-1.97477 -0.57099,-3.82186 -1.56759,-5.40073 -0.99239,-1.57077 -2.40828,-2.87534 -4.10932,-3.77186 m 5.67691,19.55856 0,-10.38597 m 50.29086,-23.70809 c -4.6761,2.42878 -8.34154,5.9554 -10.85237,10.08128 -2.47359,4.06642 -3.81785,8.7267 -3.84804,13.50993 m 12.1011,10.45623 0,-10.38596 m -3.59452,-22.96088 -13.5219,-3.81038 m 16.76596,1.58834 -11.69375,-3.29557 m 20.51076,-58.74866 -15.78481,-5.49869 m 22.54612,3.75835 -24.0477,-8.37741 m -62.40037,107.77748 0,7.716" /><path
     inkscape:connector-curvature="0"
     id="path4000"
     style="fill:none;stroke:#000000;stroke-width:1.19030356;stroke-linecap:round"
     d="m 160.35414,238.26602 49.91932,0 m -46.70267,0 11.12486,10.70147" /><line
     i:knockout="Off"
     x1="174.69565"
     y1="248.96748"
     x2="210.27347"
     y2="248.96748"
     id="line4002"
     style="fill:none;stroke:#000000;stroke-width:0.49595982;stroke-linecap:round" /><line
     i:knockout="Off"
     x1="174.69565"
     y1="268.46393"
     x2="245.8716"
     y2="268.46393"
     id="line4004"
     style="fill:none;stroke:#000000;stroke-width:1.19030356;stroke-linecap:round" /><path
     inkscape:connector-curvature="0"
     id="path4006"
     style="fill:none;stroke:#000000;stroke-width:0.49595982;stroke-linecap:round"
     d="m 174.69565,248.96749 0,19.49573 m 0,5.92702 0,35.19664 m 0,-35.19664 71.17598,0" /><line
     i:knockout="Off"
     x1="184.3344"
     y1="323.19614"
     x2="236.23357"
     y2="323.19614"
     id="line4008"
     style="fill:none;stroke:#000000;stroke-width:1.19030356;stroke-linecap:round" /><path
     inkscape:connector-curvature="0"
     id="path4010"
     style="fill:none;stroke:#000000;stroke-width:0.49595982;stroke-linecap:round"
     d="m 184.46995,327.59157 51.62738,0 m -51.62668,-4.39544 0,4.39544 m -9.79185,-18.31412 c 0.42,8.57807 5.56033,11.70676 7.23889,12.31278 1.67927,0.60533 2.51785,0.202 2.4132,1.71534" /><path
     inkscape:connector-curvature="0"
     id="path4012"
     style="fill:none;stroke:#000000;stroke-width:1.19030356;stroke-linecap:round"
     d="m 184.47065,327.59157 c 2.38299,0.7087 2.38299,1.91734 2.38299,2.8848" /><line
     i:knockout="Off"
     x1="186.85294"
     y1="330.47641"
     x2="186.85294"
     y2="333.84424"
     id="line4014"
     style="fill:none;stroke:#000000;stroke-width:0.49595982;stroke-linecap:round" /><path
     inkscape:connector-curvature="0"
     id="path4016"
     style="fill:none;stroke:#000000;stroke-width:1.19030356;stroke-linecap:round"
     d="m 188.45917,361.65995 43.64965,0 m -31.01548,14.62467 18.48665,0 m -16.44709,0 c 3.81785,3.56986 9.88034,3.55094 13.68415,-0.004 m -26.94831,-14.49974 c 1.77267,6.55803 3.88597,9.67862 11.22671,14.49766 m -12.63628,-18.01212 0,3.39353 m 57.41315,-112.69246 0,19.43898 m 0,6.06215 0,35.11758 m -9.77499,13.60993 0,4.39544 m 9.79114,-18.31412 c -0.41999,8.57807 -5.56032,11.70676 -7.23888,12.31278 -1.67927,0.60533 -2.51785,0.202 -2.4139,1.71534 m -0.13836,4.286 c -2.3837,0.7087 -2.3837,1.91734 -2.3837,2.8848 m -3.01509,31.30451 c -1.77268,6.55803 -3.88597,9.67862 -11.2267,14.49766 m 12.63698,-21.33876 0,6.72017" /><path
     inkscape:connector-curvature="0"
     id="path4018"
     style="fill:none;stroke:#000000;stroke-width:0.49595982;stroke-linecap:round"
     d="m 188.39244,336.11018 45.32119,-3.44757 m -46.89229,6.3371 46.89299,-3.56648 m -45.25587,6.21213 43.81892,-3.33341 m -45.41671,6.22429 47.00818,-3.57527 m -45.45393,6.22767 43.83225,-3.33408 m -45.36473,6.22091 46.96182,-3.57188 m -45.38509,6.22157 43.83716,-3.33407 m -45.57051,6.23645 47.14092,-3.58608 m -45.40757,6.22496 43.64965,-3.31989" /><path
     inkscape:connector-curvature="0"
     id="path4020"
     style="fill:none;stroke:#000000;stroke-width:1.19030356;stroke-linecap:round"
     d="m 163.57079,238.26602 11.12486,10.70147 m 82.27977,-10.70147 -11.24426,10.81632 m 14.35065,-18.53165 0,7.716 m 0,-6.7e-4 -49.91932,0" /><line
     i:knockout="Off"
     x1="245.74028"
     y1="248.96748"
     x2="210.16249"
     y2="248.96748"
     id="line4022"
     style="fill:none;stroke:#000000;stroke-width:0.49595982;stroke-linecap:round" /><line
     i:knockout="Off"
     x1="188.33345"
     y1="358.2063"
     x2="186.68649"
     y2="355.56607"
     id="line4024"
     style="fill:none;stroke:#000000;stroke-width:1.19030356;stroke-linecap:round" /><line
     i:knockout="Off"
     x1="188.47813"
     y1="352.70154"
     x2="186.68649"
     y2="355.56607"
     id="line4026"
     style="fill:none;stroke:#000000;stroke-width:0.49595982;stroke-linecap:round" /><line
     i:knockout="Off"
     x1="188.47813"
     y1="352.70154"
     x2="186.86208"
     y2="350.04169"
     id="line4028"
     style="fill:none;stroke:#000000;stroke-width:1.19030356;stroke-linecap:round" /><line
     i:knockout="Off"
     x1="186.86208"
     y1="350.04169"
     x2="188.44162"
     y2="347.14001"
     id="line4030"
     style="fill:none;stroke:#000000;stroke-width:0.49595982;stroke-linecap:round" /><line
     i:knockout="Off"
     x1="188.44162"
     y1="347.14001"
     x2="186.82556"
     y2="344.47952"
     id="line4032"
     style="fill:none;stroke:#000000;stroke-width:1.19030356;stroke-linecap:round" /><line
     i:knockout="Off"
     x1="186.82556"
     y1="344.47952"
     x2="188.47813"
     y2="341.6116"
     id="line4034"
     style="fill:none;stroke:#000000;stroke-width:0.49595982;stroke-linecap:round" /><line
     i:knockout="Off"
     x1="188.47813"
     y1="341.6116"
     x2="186.75391"
     y2="339.12473"
     id="line4036"
     style="fill:none;stroke:#000000;stroke-width:1.19030356;stroke-linecap:round" /><line
     i:knockout="Off"
     x1="186.75391"
     y1="339.12473"
     x2="188.40579"
     y2="336.08453"
     id="line4038"
     style="fill:none;stroke:#000000;stroke-width:0.49595982;stroke-linecap:round" /><line
     i:knockout="Off"
     x1="188.40579"
     y1="336.08453"
     x2="186.85294"
     y2="333.84424"
     id="line4040"
     style="fill:none;stroke:#000000;stroke-width:1.19030356;stroke-linecap:round" /><path
     inkscape:connector-curvature="0"
     id="path4042"
     style="fill:none;stroke:#000000;stroke-width:0.49595982;stroke-linecap:round"
     d="m 228.01003,361.67076 c -1.57462,5.55814 -3.59872,8.30513 -10.0201,12.5195 m 6.3673,-12.52761 c -1.3274,4.14277 -3.22369,6.3763 -8.34506,9.73875 m 3.54746,-9.73808 c -1.05981,2.38284 -2.69484,3.93807 -6.08356,6.16281" /><line
     i:knockout="Off"
     x1="233.89342"
     y1="352.08673"
     x2="232.10178"
     y2="354.94992"
     id="line4044"
     style="fill:none;stroke:#000000;stroke-width:1.19030356;stroke-linecap:round" /><path
     inkscape:connector-curvature="0"
     id="path4046"
     style="fill:none;stroke:#000000;stroke-width:0.49595982;stroke-linecap:round"
     d="m 233.89342,352.08672 -1.61604,-2.6605 m 0,6.7e-4 1.58023,-2.90237 m 0,0 -1.61675,-2.6605" /><line
     i:knockout="Off"
     x1="232.24084"
     y1="343.86401"
     x2="233.89342"
     y2="340.9968"
     id="line4048"
     style="fill:none;stroke:#000000;stroke-width:1.19030356;stroke-linecap:round" /><line
     i:knockout="Off"
     x1="233.89342"
     y1="340.9968"
     x2="232.16991"
     y2="338.50925"
     id="line4050"
     style="fill:none;stroke:#000000;stroke-width:0.49595982;stroke-linecap:round" /><path
     inkscape:connector-curvature="0"
     id="path4052"
     style="fill:none;stroke:#000000;stroke-width:1.19030356;stroke-linecap:round"
     d="m 232.16991,338.50923 1.65188,-3.04019 m -1.54441,13.95785 1.58023,-2.90237 m -0.14398,-16.04815 0,4.99334" /><path
     inkscape:connector-curvature="0"
     id="path4054"
     style="fill:none;stroke:#000000;stroke-width:0.49595982;stroke-linecap:round"
     d="m 228.01003,354.94924 0,6.72085 m -3.62682,-5.77907 0,6.05201 m -4.82358,-3.98806 0,3.70835 m -33.35283,-38.46719 0,4.39544 m 3.58188,-4.18601 0,4.39476 m 10.09384,-4.49948 0,4.39544 m 21.92386,-4.60419 0,4.39544 m 5.75205,-4.08197 0,4.39476 m 2.82266,-4.49948 0,4.39544 m 2.06133,-4.50015 0,4.39544 m 1.73686,-4.39544 0,4.39544 m -47.97248,0 c 1.14972,0.8026 1.39693,1.36943 1.39693,2.23488 m -0.75078,4.01778 19.79158,0 m -15.49053,-3.81038 0,3.51986 m -3.54956,-3.72726 0,3.51986 m 2.18424,-5.54599 c 0.87229,0.72763 1.36532,1.36876 1.36532,2.23353 m 9.47299,-0.52696 0,3.51986 m 33.55229,-5.43518 c -1.47279,0.38103 -1.89067,0.78369 -1.89067,1.73966 m -2.09153,-0.10066 0,2.51525 m 2.09153,-2.41459 0,2.51525 m 11.03778,-22.68523 c -0.10816,2.22001 -0.571,4.01913 -1.22135,5.46153 -0.42983,0.95057 -0.93831,1.73967 -1.46927,2.38487 -1.11179,1.3539 -2.28537,2.05449 -2.88657,2.27136 -0.34273,0.12431 -0.63981,0.18579 -0.88633,0.24119 -0.2711,0.0608 -0.50919,0.11822 -0.71567,0.18173 -0.76414,0.23646 -1.71298,1.08434 -1.71298,1.08434 0,0 -0.40665,0.5648 -0.5429,0.92962 -0.12221,0.32429 -0.2128,0.72019 -0.22615,1.21946 -0.004,0.16079 -7e-4,0.33847 0.0134,0.53372 m -5.00338,-2.6774 -37.71147,0 m 33.47081,-3.05911 -37.71146,0 m 56.60337,-69.1907 0,19.92136 m 0,5.92702 0,34.77101 m -6.47898,-60.16944 0,19.47141 m 0,5.92702 0,35.22096 m -11.77732,-60.61939 0,19.47141 m 0,5.92702 0,35.22096 m 28.44145,-71.50395 -10.18515,10.6204 m 2.63021,-10.3353 -9.10919,11.43653 m -7.33439,-11.57908 -4.58831,10.71769 m -32.15045,-11.00279 4.25751,11.00279 m -21.35215,-10.70147 8.2397,10.70147 m -15.27842,-10.70147 9.91686,10.70147 m -16.72663,-10.75754 0,-7.72209 m 2.6562,7.72209 0,-7.72209 m 4.15357,7.77816 0,-7.72209 m 7.03872,7.72209 0,-7.72209 m 17.09464,7.42077 0,-7.72208 m 36.73876,8.00718 0,-7.72208 m 23.57853,8.09839 0,-7.72208 m 0,7.72208 0,-7.72208 m 3.88387,7.36199 0,-7.72209 m -78.41766,18.42356 0,19.49573 m 0,5.92702 0,27.82451 m 5.36227,-53.24726 0,19.49573 m 0,5.92702 0,15.85561 m 13.11174,-41.27836 0,19.49573 m 0,5.92702 0,8.96451" /><path
     inkscape:connector-curvature="0"
     id="path4056"
     style="fill:none;stroke:#000000;stroke-width:1.19030356;stroke-linecap:round"
     d="m 243.32639,274.39024 0,-5.92634 m -5.1902,5.86014 0,-5.92635 m -4.43871,5.95945 0,-5.92634" /><line
     i:knockout="Off"
     x1="229.97514"
     y1="274.31732"
     x2="229.97514"
     y2="268.39026"
     id="line4058"
     style="fill:none;stroke:#000000;stroke-width:0.49595982;stroke-linecap:round" /><path
     inkscape:connector-curvature="0"
     id="path4060"
     style="fill:none;stroke:#000000;stroke-width:1.19030356;stroke-linecap:round"
     d="m 227.85904,274.32404 0,-5.92635 m -12.11796,5.84055 0,-5.92635 m -11.73168,6.0716 0,-5.92634 m -11.44654,5.9439 0,-5.92634" /><path
     inkscape:connector-curvature="0"
     id="path4062"
     style="fill:none;stroke:#000000;stroke-width:0.49595982;stroke-linecap:round"
     d="m 180.08953,274.38619 0,-5.92634 m -2.27624,5.91418 0,-5.92635 m -2.02201,5.97364 0,-5.92635 m 61.04982,41.13177 c -0.16646,1.92815 -0.50076,6.74652 -4.2863,7.38969" /><path
     inkscape:connector-curvature="0"
     id="path4259"
     style="fill:#00a2ff;fill-opacity:0.25555558;fill-rule:evenodd;stroke:none"
     d="m 256.01359,238.06057 -52.32888,0 c 0,0 9.11792,2.28806 11.4965,5.72015 2.37858,3.43209 2.37858,5.33881 2.37858,5.33881 l 28.1466,0 10.3072,-11.05896 z" /><path
     inkscape:connector-curvature="0"
     id="path4261"
     style="fill:#00a2ff;fill-opacity:0.25555558;fill-rule:evenodd;stroke:none"
     d="m 217.55979,249.11953 -0.39643,19.44851 c 0,0 3.96432,0 3.96432,5.33881 0,5.33881 0.39642,37.75299 0.39642,37.75299 0,0 0.79287,9.91494 -6.34289,11.05896 -7.13576,1.14403 20.6144,0.38135 20.6144,0.38135 l 4.36075,-3.05074 5.1536,-5.72016 0.39643,-11.82164 0,-28.9821 -1.98216,0.38134 -0.39643,-5.72015 2.77502,0 -0.39643,-19.44852 -28.1466,0.38135 z" /><path
     inkscape:connector-curvature="0"
     id="path4263"
     style="fill:#00a2ff;fill-opacity:0.25555558;fill-rule:evenodd;stroke:none"
     d="m 216.16144,323.14335 0,4.48823 c 0,0 -2.43433,0.39028 -2.43433,2.53683 0,2.14654 -0.20286,3.90281 -0.20286,3.90281 l 2.02861,2.92711 -2.23147,2.73197 2.23147,2.73197 -2.02861,2.92711 2.02861,2.34169 -2.63719,2.9271 2.84006,2.92711 -3.04292,2.73196 -0.20286,5.26881 19.67753,0.39028 0.20286,-6.82992 1.42002,-2.73197 -1.82574,-3.12225 1.82574,-2.53683 -1.62288,-3.51253 1.82574,-2.34169 -1.62288,-2.53682 1.21717,-2.73197 0.20285,-6.43965 2.84005,-1.75626 -0.40571,-4.68337 -20.08326,0.39028 z" /><path
     inkscape:connector-curvature="0"
     id="path4275"
     style="opacity:0.7;fill:#0084ff;fill-opacity:0.25555558;fill-rule:evenodd;stroke:none"
     d="m 206.01839,238.06206 -1e-5,-7.41535 53.55534,-0.39028 0.20287,7.80563 -53.7582,0 z" /></g></svg>