<?xml version="1.0" encoding="UTF-8" standalone="no"?>
<!-- Created with Inkscape (http://www.inkscape.org/) -->

<svg
   xmlns:dc="http://purl.org/dc/elements/1.1/"
   xmlns:cc="http://creativecommons.org/ns#"
   xmlns:rdf="http://www.w3.org/1999/02/22-rdf-syntax-ns#"
   xmlns:svg="http://www.w3.org/2000/svg"
   xmlns="http://www.w3.org/2000/svg"
   xmlns:xlink="http://www.w3.org/1999/xlink"
   version="1.1"
   width="100%"
   height="100%"
   viewBox="0 0 1 1"
   id="svg2">
  <metadata
     id="metadata15">
    <rdf:RDF>
      <cc:Work
         rdf:about="">
        <dc:format>image/svg+xml</dc:format>
        <dc:type
           rdf:resource="http://purl.org/dc/dcmitype/StillImage" />
        <dc:title></dc:title>
      </cc:Work>
    </rdf:RDF>
  </metadata>
  <defs
     id="defs13" />
  <radialGradient
     cx="0.5"
     cy="0.5"
     r="0.75"
     id="grad-ucgg-generated"
     gradientUnits="userSpaceOnUse">
    <stop
       id="stop5"
       style="stop-color:#a0aec1;stop-opacity:0.70694864"
       offset="0" />
    <stop
       id="stop7"
       style="stop-color:#627894;stop-opacity:0.93957704"
       offset="1" />
  </radialGradient>
  <rect
     width="101"
     height="101"
     x="-50"
     y="-50"
     id="rect9"
     style="fill:url(#grad-ucgg-generated);fill-rule:nonzero" />
  <use
     transform="translate(0.01712106,0.35152903)"
     id="use3779"
     x="0"
     y="0"
     width="1"
     height="1"
     xlink:href="#rect9" />
  <use
     transform="translate(-0.34747819,0.32970114)"
     id="use3781"
     x="0"
     y="0"
     width="1"
     height="1"
     xlink:href="#rect9" />
  <use
     transform="translate(0.22756923,0.13157468)"
     id="use3783"
     x="0"
     y="0"
     width="1"
     height="1"
     xlink:href="#rect9" />
  <use
     transform="translate(0.21883532,-0.01172271)"
     id="use3785"
     x="0"
     y="0"
     width="1"
     height="1"
     xlink:href="#rect9" />
  <use
     transform="translate(0.31555434,0.19863582)"
     id="use3787"
     x="0"
     y="0"
     width="1"
     height="1"
     xlink:href="#rect9" />
  <use
     transform="translate(0.23444809,0.13939767)"
     id="use3789"
     x="0"
     y="0"
     width="1"
     height="1"
     xlink:href="#rect9" />
  <use
     transform="translate(-0.23597695,-0.27164646)"
     id="use3791"
     x="0"
     y="0"
     width="1"
     height="1"
     xlink:href="#rect9" />
  <use
     transform="translate(-0.09646549,-0.19888912)"
     id="use3793"
     x="0"
     y="0"
     width="1"
     height="1"
     xlink:href="#rect9" />
  <use
     transform="translate(-0.27816417,-0.17638188)"
     id="use3795"
     x="0"
     y="0"
     width="1"
     height="1"
     xlink:href="#rect9" />
  <use
     transform="translate(-0.09120951,-0.27968837)"
     id="use3797"
     x="0"
     y="0"
     width="1"
     height="1"
     xlink:href="#rect9" />
  <use
     transform="translate(-0.10872606,-0.23121893)"
     id="use3799"
     x="0"
     y="0"
     width="1"
     height="1"
     xlink:href="#rect9" />
  <use
     transform="translate(0.03689226,0.10535603)"
     id="use3813"
     x="0"
     y="0"
     width="1"
     height="1"
     xlink:href="#rect9" />
  <use
     transform="translate(0.15291246,-0.00311088)"
     id="use3815"
     x="0"
     y="0"
     width="1"
     height="1"
     xlink:href="#rect9" />
  <use
     transform="translate(-0.05616601,0.30716432)"
     id="use3817"
     x="0"
     y="0"
     width="1"
     height="1"
     xlink:href="#rect9" />
  <use
     transform="translate(0.16040073,0.26069986)"
     id="use3819"
     x="0"
     y="0"
     width="1"
     height="1"
     xlink:href="#rect9" />
  <use
     transform="translate(0.2404166,0.35603325)"
     id="use3821"
     x="0"
     y="0"
     width="1"
     height="1"
     xlink:href="#rect9" />
  <use
     transform="translate(0.01809081,0.22682514)"
     id="use3823"
     x="0"
     y="0"
     width="1"
     height="1"
     xlink:href="#rect9" />
  <use
     transform="translate(0.06865393,0.1930329)"
     id="use3825"
     x="0"
     y="0"
     width="1"
     height="1"
     xlink:href="#rect9" />
  <use
     transform="translate(0.12861399,-0.19558009)"
     id="use3827"
     x="0"
     y="0"
     width="1"
     height="1"
     xlink:href="#rect9" />
  <use
     transform="translate(0.73825937,-0.16852662)"
     id="use3829"
     x="0"
     y="0"
     width="1"
     height="1"
     xlink:href="#rect9" />
  <use
     transform="translate(0.66378051,-0.01528606)"
     id="use3831"
     x="0"
     y="0"
     width="1"
     height="1"
     xlink:href="#rect9" />
  <use
     transform="translate(0.25109151,-0.19860473)"
     id="use3833"
     x="0"
     y="0"
     width="1"
     height="1"
     xlink:href="#rect9" />
  <use
     transform="translate(0.59890167,-0.15848595)"
     id="use3835"
     x="0"
     y="0"
     width="1"
     height="1"
     xlink:href="#rect9" />
  <use
     transform="translate(0.33481245,0.00227884)"
     id="use3837"
     x="0"
     y="0"
     width="1"
     height="1"
     xlink:href="#rect9" />
  <use
     transform="translate(-0.00226942,-0.23035301)"
     id="use3839"
     x="0"
     y="0"
     width="1"
     height="1"
     xlink:href="#rect9" />
  <use
     transform="translate(0.21113809,-0.07309077)"
     id="use3841"
     x="0"
     y="0"
     width="1"
     height="1"
     xlink:href="#rect9" />
  <use
     transform="translate(0.18142914,0.23641365)"
     id="use3843"
     x="0"
     y="0"
     width="1"
     height="1"
     xlink:href="#rect9" />
  <use
     transform="translate(0.04730569,0.34392918)"
     id="use3845"
     x="0"
     y="0"
     width="1"
     height="1"
     xlink:href="#rect9" />
  <use
     transform="translate(0.06086706,0.1223879)"
     id="use3847"
     x="0"
     y="0"
     width="1"
     height="1"
     xlink:href="#rect9" />
</svg>
